# Blender v2.74 (sub 0) OBJ File: ''
# www.blender.org
mtllib multiMesh.mtl
o Cube2_Cube.001
v -1.620808 -1.000760 -2.792806
v -1.620808 0.999240 -2.792806
v -1.620808 -1.000760 -4.792806
v -1.620808 0.999240 -4.792806
v 0.379192 -1.000760 -2.792806
v 0.379192 0.999240 -2.792806
v 0.379192 -1.000760 -4.792806
v 0.379192 0.999240 -4.792806
vn -1.000000 0.000000 0.000000
vn 0.000000 0.000000 -1.000000
vn 1.000000 0.000000 0.000000
vn 0.000000 0.000000 1.000000
vn 0.000000 -1.000000 0.000000
vn 0.000000 1.000000 0.000000
usemtl Cube
s off
f 4//1 3//1 1//1
f 8//2 7//2 3//2
f 6//3 5//3 7//3
f 2//4 1//4 5//4
f 3//5 7//5 5//5
f 8//6 4//6 2//6
f 2//1 4//1 1//1
f 4//2 8//2 3//2
f 8//3 6//3 7//3
f 6//4 2//4 5//4
f 1//5 3//5 5//5
f 6//6 8//6 2//6
o Cone
v 0.000000 1.889189 -1.000000
v 0.195090 1.889189 -0.980785
v 0.382683 1.889189 -0.923880
v 0.555570 1.889189 -0.831470
v 0.707107 1.889189 -0.707107
v 0.831470 1.889189 -0.555570
v 0.923880 1.889189 -0.382683
v 0.980785 1.889189 -0.195090
v 1.000000 1.889189 -0.000000
v 0.000000 3.889189 0.000000
v 0.980785 1.889189 0.195090
v 0.923880 1.889189 0.382683
v 0.831470 1.889189 0.555570
v 0.707107 1.889189 0.707107
v 0.555570 1.889189 0.831470
v 0.382683 1.889189 0.923880
v 0.195090 1.889189 0.980785
v -0.000000 1.889189 1.000000
v -0.195091 1.889189 0.980785
v -0.382684 1.889189 0.923879
v -0.555571 1.889189 0.831469
v -0.707107 1.889189 0.707106
v -0.831470 1.889189 0.555570
v -0.923880 1.889189 0.382683
v -0.980785 1.889189 0.195089
v -1.000000 1.889189 -0.000001
v -0.980785 1.889189 -0.195091
v -0.923879 1.889189 -0.382684
v -0.831469 1.889189 -0.555571
v -0.707106 1.889189 -0.707108
v -0.555569 1.889189 -0.831470
v -0.382682 1.889189 -0.923880
v -0.195089 1.889189 -0.980786
vn -0.259900 0.445500 -0.856700
vn 0.087800 0.445500 -0.891000
vn -0.422000 0.445500 -0.789600
vn -0.568000 0.445500 -0.692100
vn -0.692100 0.445500 -0.568000
vn -0.789600 0.445500 -0.422000
vn -0.856700 0.445500 -0.259900
vn -0.891000 0.445500 -0.087800
vn -0.891000 0.445500 0.087800
vn -0.856700 0.445500 0.259900
vn -0.789600 0.445500 0.422000
vn -0.692100 0.445500 0.568000
vn -0.568000 0.445500 0.692100
vn -0.422000 0.445500 0.789600
vn -0.259900 0.445500 0.856700
vn -0.087800 0.445500 0.891000
vn 0.087800 0.445500 0.891000
vn 0.259900 0.445500 0.856700
vn 0.422000 0.445500 0.789600
vn 0.568000 0.445500 0.692100
vn 0.692100 0.445500 0.568000
vn 0.789600 0.445500 0.422000
vn 0.856700 0.445500 0.259900
vn 0.891000 0.445500 0.087800
vn 0.891000 0.445500 -0.087800
vn 0.856700 0.445500 -0.259900
vn 0.789600 0.445500 -0.422000
vn 0.692100 0.445500 -0.568000
vn 0.568000 0.445500 -0.692100
vn 0.422000 0.445500 -0.789600
vn -0.087800 0.445500 -0.891000
vn 0.259900 0.445500 -0.856700
vn 0.000000 -1.000000 0.000000
usemtl Cone
s off
f 40//7 18//7 41//7
f 9//8 18//8 10//8
f 39//9 18//9 40//9
f 38//10 18//10 39//10
f 37//11 18//11 38//11
f 36//12 18//12 37//12
f 35//13 18//13 36//13
f 34//14 18//14 35//14
f 33//15 18//15 34//15
f 32//16 18//16 33//16
f 31//17 18//17 32//17
f 30//18 18//18 31//18
f 29//19 18//19 30//19
f 28//20 18//20 29//20
f 27//21 18//21 28//21
f 26//22 18//22 27//22
f 25//23 18//23 26//23
f 24//24 18//24 25//24
f 23//25 18//25 24//25
f 22//26 18//26 23//26
f 21//27 18//27 22//27
f 20//28 18//28 21//28
f 19//29 18//29 20//29
f 17//30 18//30 19//30
f 16//31 18//31 17//31
f 15//32 18//32 16//32
f 14//33 18//33 15//33
f 13//34 18//34 14//34
f 12//35 18//35 13//35
f 11//36 18//36 12//36
f 41//37 18//37 9//37
f 10//38 18//38 11//38
f 9//39 17//39 26//39
f 38//39 41//39 9//39
f 38//39 39//39 40//39
f 36//39 37//39 38//39
f 34//39 35//39 36//39
f 30//39 33//39 34//39
f 30//39 31//39 32//39
f 28//39 29//39 30//39
f 26//39 27//39 28//39
f 22//39 25//39 26//39
f 22//39 23//39 24//39
f 20//39 21//39 22//39
f 17//39 19//39 20//39
f 13//39 16//39 17//39
f 13//39 14//39 15//39
f 11//39 12//39 13//39
f 9//39 10//39 11//39
f 38//39 40//39 41//39
f 34//39 36//39 38//39
f 30//39 32//39 33//39
f 34//39 28//39 30//39
f 22//39 24//39 25//39
f 26//39 20//39 22//39
f 13//39 15//39 16//39
f 9//39 11//39 13//39
f 26//39 38//39 9//39
f 26//39 28//39 34//39
f 17//39 20//39 26//39
f 9//39 13//39 17//39
f 26//39 34//39 38//39
o Cube
v 1.000000 -1.000000 -1.000000
v 1.000000 -1.000000 1.000000
v -1.000000 -1.000000 1.000000
v -1.000000 -1.000000 -1.000000
v 1.000000 1.000000 -0.999999
v 0.999999 1.000000 1.000001
v -1.000000 1.000000 1.000000
v -1.000000 1.000000 -1.000000
vn 0.000000 -1.000000 0.000000
vn 0.000000 1.000000 0.000000
vn 1.000000 0.000000 0.000000
vn -0.000000 0.000000 1.000000
vn -1.000000 -0.000000 -0.000000
vn 0.000000 0.000000 -1.000000
usemtl Cube
s off
f 43//40 44//40 45//40
f 49//41 48//41 47//41
f 46//42 47//42 43//42
f 47//43 48//43 44//43
f 44//44 48//44 49//44
f 42//45 45//45 49//45
f 42//40 43//40 45//40
f 46//41 49//41 47//41
f 42//42 46//42 43//42
f 43//43 47//43 44//43
f 45//44 44//44 49//44
f 46//45 42//45 49//45
