# Blender v2.74 (sub 0) OBJ File: ''
# www.blender.org
mtllib xyzHelper.mtl
o XYZHelp_Cube
v -1.000000 -0.008671 -0.200000
v 1.000000 -0.008671 -0.200000
v -1.000000 -0.008671 0.200000
v 1.000000 -0.008671 0.200000
v -0.200324 0.000000 -0.998378
v 0.199676 0.000000 -1.001620
v -0.199676 0.000000 1.001620
v 0.200324 0.000000 0.998378
v 0.001621 -1.000000 0.200000
v 0.001621 1.000000 0.200000
v -0.001621 -1.000000 -0.200000
v -0.001621 1.000000 -0.200000
v 0.001621 -1.000000 0.200000
v 0.001621 1.000000 0.200000
v -0.001621 -1.000000 -0.200000
v -0.001621 1.000000 -0.200000
v -1.000000 -0.008671 -0.200000
v 1.000000 -0.008671 -0.200000
v -1.000000 -0.008671 0.200000
v 1.000000 -0.008671 0.200000
v -0.200324 0.000000 -0.998378
v 0.199676 0.000000 -1.001620
v -0.199676 0.000000 1.001620
v 0.200324 0.000000 0.998378
vt 0.000000 0.001554
vt 0.333330 0.998446
vt 0.333330 0.000000
vt 0.666670 0.998447
vt 0.666670 0.000000
vt 1.000000 0.998447
vt 0.000000 1.000000
vt 0.999999 0.000000
vn 0.000000 1.000000 0.000000
vn 1.000000 0.000000 -0.008100
vn -1.000000 -0.000000 0.008100
vn 0.000000 0.000000 1.000000
vn 0.000000 -1.000000 0.000000
usemtl _XYZHelper
s off
f 8/1/1 5/2/1 7/3/1
f 10/3/2 11/4/2 12/5/2
f 3/6/1 2/5/1 1/4/1
f 6/7/1 5/2/1 8/1/1
f 9/2/2 11/4/2 10/3/2
f 4/8/1 2/5/1 3/6/1
f 14/3/3 16/5/3 15/4/3
f 13/2/3 14/3/3 15/4/3
f 11/4/4 9/2/4 13/2/4
f 9/2/4 10/3/4 14/3/4
f 10/3/4 12/5/4 16/5/4
f 12/5/4 11/4/4 15/4/4
f 19/6/5 17/4/5 18/5/5
f 20/8/5 19/6/5 18/5/5
f 4/8/4 3/6/4 19/6/4
f 2/5/4 4/8/4 20/8/4
f 3/6/4 1/4/4 17/4/4
f 1/4/4 2/5/4 18/5/4
f 24/1/5 23/3/5 21/2/5
f 22/7/5 24/1/5 21/2/5
f 6/7/4 8/1/4 24/1/4
f 8/1/4 7/3/4 23/3/4
f 7/3/4 5/2/4 21/2/4
f 5/2/4 6/7/4 22/7/4
f 15/4/4 11/4/4 13/2/4
f 13/2/4 9/2/4 14/3/4
f 14/3/4 10/3/4 16/5/4
f 16/5/4 12/5/4 15/4/4
f 20/8/4 4/8/4 19/6/4
f 18/5/4 2/5/4 20/8/4
f 19/6/4 3/6/4 17/4/4
f 17/4/4 1/4/4 18/5/4
f 22/7/4 6/7/4 24/1/4
f 24/1/4 8/1/4 23/3/4
f 23/3/4 7/3/4 21/2/4
f 21/2/4 5/2/4 22/7/4
